<?xml version="1.0" encoding="utf-8"?>
<!-- Generator: Adobe Illustrator 25.0.0, SVG Export Plug-In . SVG Version: 6.00 Build 0)  -->
<svg version="1.1" id="Layer_1" xmlns="http://www.w3.org/2000/svg" xmlns:xlink="http://www.w3.org/1999/xlink" x="0px" y="0px"
	 viewBox="0 0 492 492" style="enable-background:new 0 0 492 492;" xml:space="preserve">
<g>
	<g>
		<path d="M109.3,265.2l218.9,218.9c5.1,5.1,11.8,7.9,19,7.9s14-2.8,19-7.9l16.1-16.1c10.5-10.5,10.5-27.6,0-38.1L198.6,246.1
			L382.7,62c5.1-5.1,7.9-11.8,7.9-19c0-7.2-2.8-14-7.9-19L366.5,7.9c-5.1-5.1-11.8-7.9-19-7.9s-14,2.8-19,7.9L109.3,227
			c-5.1,5.1-7.9,11.9-7.8,19.1C101.5,253.3,104.3,260.1,109.3,265.2z"/>
	</g>
</g>
</svg>
