<?xml version="1.0" encoding="utf-8"?>
<!-- Generator: Adobe Illustrator 25.0.0, SVG Export Plug-In . SVG Version: 6.00 Build 0)  -->
<svg version="1.1" id="Слой_1" xmlns="http://www.w3.org/2000/svg" xmlns:xlink="http://www.w3.org/1999/xlink" x="0px" y="0px"
	 viewBox="0 0 48 48" enable-background="new 0 0 48 48" xml:space="preserve">
<path fill="none" d="M0,0h48v48H0V0z"/>
<path d="M24,7.9C13.2,7.9,4.1,14.6,0.3,24C4.1,33.4,13.2,40.1,24,40.1c10.8,0,19.9-6.7,23.7-16.1C43.9,14.6,34.8,7.9,24,7.9z
	 M24,34.8c-5.9,0-10.8-4.8-10.8-10.8S18.1,13.2,24,13.2S34.8,18.1,34.8,24S29.9,34.8,24,34.8z M24,17.5c-3.6,0-6.5,2.9-6.5,6.5
	s2.9,6.5,6.5,6.5s6.5-2.9,6.5-6.5S27.6,17.5,24,17.5z"/>
</svg>
