<?xml version="1.0" encoding="utf-8"?>
<!-- Generator: Adobe Illustrator 25.0.0, SVG Export Plug-In . SVG Version: 6.00 Build 0)  -->
<svg version="1.1" id="Icons" xmlns="http://www.w3.org/2000/svg" xmlns:xlink="http://www.w3.org/1999/xlink" x="0px" y="0px"
	 viewBox="0 0 32 32" style="enable-background:new 0 0 32 32;" xml:space="preserve">
<g>
	<path d="M22.7,8.9c-1.1-0.4-2.2-1-3.3-1.6v9.8c1.1,0,2.2,0.1,3.3,0V8.9z"/>
	<path d="M29.1,10c-0.2-0.2-0.6-0.3-0.9-0.3c-1.1,0.1-2.2,0-3.2-0.2v7.3c1.2-0.3,2.5-0.8,3.9-1.6c0.3-0.2,0.6-0.6,0.6-1v-3.3
		C29.4,10.5,29.3,10.2,29.1,10z"/>
	<path d="M11.5,4.4c-0.8-0.1-1.5-0.1-2.3,0c-0.6,0.1-0.9,0.4-1,1L4.8,8.1V1.5c0-0.7-0.4-1.1-1.1-1.1S2.6,0.8,2.6,1.5v29
		c0,0.7,0.4,1.1,1.1,1.1s1.1-0.4,1.1-1.1V15l3.3,2.7v0.1c0,0.4,0.2,0.8,0.6,1c0.2,0.1,0.3,0.1,0.6,0.1c0.2,0,0.3,0,0.6-0.1
		c0.6-0.3,1.1-0.6,1.7-0.8V4.4z M8.2,14.8l-3.3-2.7V11l3.3-2.7V14.8z"/>
	<path d="M17.1,6.1c-1-0.4-2.1-0.9-3.3-1.2v12.5c1.1-0.2,2.2-0.3,3.3-0.2V6.1z"/>
</g>
</svg>
