<?xml version="1.0" ?><!DOCTYPE svg  PUBLIC '-//W3C//DTD SVG 1.1//EN'  'http://www.w3.org/Graphics/SVG/1.1/DTD/svg11.dtd'><svg enable-background="new 0 0 24 24" height="24px" id="Layer_1" version="1.1" viewBox="0 0 24 24" width="24px" xml:space="preserve" xmlns="http://www.w3.org/2000/svg" xmlns:xlink="http://www.w3.org/1999/xlink"><g><path d="M12,0C5.4,0,0,5.4,0,12s5.4,12,12,12s12-5.4,12-12S18.6,0,12,0z M12,22C6.5,22,2,17.5,2,12S6.5,2,12,2s10,4.5,10,10   S17.5,22,12,22z"/><path d="M12,3c-5,0-9,4-9,9c0,2.5,1,4.7,2.6,6.4l0.7-0.7C4.9,16.2,4,14.2,4,12c0-4.4,3.6-8,8-8s8,3.6,8,8c0,2.2-0.9,4.2-2.3,5.7   l0.7,0.7C20,16.7,21,14.5,21,12C21,7,17,3,12,3z"/><path d="M13,15.3V7c0-0.6-0.4-1-1-1s-1,0.4-1,1v8.3c-0.6,0.3-1,1-1,1.7c0,1.1,0.9,2,2,2s2-0.9,2-2C14,16.3,13.6,15.6,13,15.3z    M12,18c-0.6,0-1-0.4-1-1s0.4-1,1-1s1,0.4,1,1S12.6,18,12,18z"/></g></svg>