<?xml version="1.0" encoding="utf-8"?>
<!-- Generator: Adobe Illustrator 25.0.0, SVG Export Plug-In . SVG Version: 6.00 Build 0)  -->
<svg version="1.1" id="Layer_1" xmlns="http://www.w3.org/2000/svg" xmlns:xlink="http://www.w3.org/1999/xlink" x="0px" y="0px"
	 viewBox="0 0 512 512" style="enable-background:new 0 0 512 512;" xml:space="preserve">
<path d="M416.4,248.7c0-1.4,0.2-2.7,0.2-4.1c0-73.3-58.4-132.7-130.5-132.7c-52,0-96.7,30.9-117.7,75.6c-9.1-4.6-19.4-7.3-30.2-7.3
	c-33.3,0-61,24.7-66.3,57c-39.9,13.8-68.5,52-68.5,97c0,56.6,45.2,102.5,101,102.7h312.1l0,0c51-0.2,92.2-42.3,92.2-94.1
	C508.8,290.9,467.4,248.8,416.4,248.7z"/>
</svg>
