<?xml version="1.0" encoding="utf-8"?>
<!-- Generator: Adobe Illustrator 25.0.0, SVG Export Plug-In . SVG Version: 6.00 Build 0)  -->
<svg version="1.1" id="Слой_1" xmlns="http://www.w3.org/2000/svg" xmlns:xlink="http://www.w3.org/1999/xlink" x="0px" y="0px"
	 viewBox="0 0 64 64" style="enable-background:new 0 0 64 64;" xml:space="preserve">
<g>
	<path style="fill:#EC6E4C;" d="M44.5,56.5C29.3,56.5,17,45.5,17,32C17,18.5,29.3,7.5,44.5,7.5c3.5,0,6.8,0.6,9.9,1.6
		C48.6,3.5,40.7,0,32,0C14.3,0,0,14.3,0,32c0,17.7,14.3,32,32,32c8.7,0,16.6-3.5,22.4-9.1C51.3,55.9,48,56.5,44.5,56.5z"/>
</g>
<polygon style="fill:#EC6E4C;" points="26.9,32 38,43.1 49.1,32 47.1,29.9 39.4,37.7 39.4,20.9 36.6,20.9 36.6,37.7 28.9,29.9 "/>
</svg>
