<?xml version="1.0" encoding="utf-8"?>
<!-- Generator: Adobe Illustrator 25.0.0, SVG Export Plug-In . SVG Version: 6.00 Build 0)  -->
<svg version="1.1" id="Слой_1" xmlns="http://www.w3.org/2000/svg" xmlns:xlink="http://www.w3.org/1999/xlink" x="0px" y="0px"
	 viewBox="0 0 24 24" style="enable-background:new 0 0 24 24;" xml:space="preserve">
<g id="Layer_1">
	<g>
		<path d="M12.8,15.7V9c0-0.3-0.3-0.6-0.6-0.6c-0.3,0-0.6,0.3-0.6,0.6v6.7c-1,0.3-1.8,1.2-1.8,2.3c0,1.3,1.1,2.4,2.4,2.4
			s2.4-1.1,2.4-2.4C14.6,16.9,13.8,16,12.8,15.7z"/>
		<path d="M16.4,13.8V4.2c0-2.3-1.9-4.2-4.2-4.2S8,1.9,8,4.2v9.6c-1.1,1.1-1.8,2.6-1.8,4.2c0,3.3,2.7,6,6,6s6-2.7,6-6
			C18.2,16.3,17.5,14.8,16.4,13.8z M12.2,21.6c-2,0-3.6-1.6-3.6-3.6c0-1.3,0.7-2.5,1.8-3.1V4.2c0-1,0.8-1.8,1.8-1.8S14,3.2,14,4.2
			v10.7c1.1,0.6,1.8,1.8,1.8,3.1C15.8,20,14.1,21.6,12.2,21.6z"/>
	</g>
</g>
</svg>
